<svg xmlns="http://www.w3.org/2000/svg" width="192" height="192" viewBox="0 0 192 192" fill="none"><metadata><rdf:RDF xmlns:rdf="http://www.w3.org/1999/02/22-rdf-syntax-ns#" xmlns:dc="http://purl.org/dc/elements/1.1/"><rdf:Description><dc:creator>RealFaviconGenerator</dc:creator><dc:source>https://realfavicongenerator.net</dc:source></rdf:Description></rdf:RDF></metadata><path d="M158.671 121.476C153.61 123.202 150.802 128.603 152.297 133.737L167.164 184.796C168.407 189.064 172.319 192 176.765 192H182C187.523 192 192 187.523 192 182V124.088C192 117.234 185.261 112.411 178.773 114.623L158.671 121.476Z" fill="#EDEAE1"></path><path d="M6.48392 173.365C2.60653 174.687 0 178.33 0 182.427C0 187.714 4.28615 192 9.57338 192H143.436C150.1 192 154.9 185.603 153.037 179.204L141.18 138.483C139.586 133.01 133.747 129.974 128.352 131.814L6.48392 173.365Z" fill="#EDEAE1"></path><path d="M0 148.924C0 155.778 6.73952 160.601 13.2272 158.388L33.3819 151.516C37.3042 150.179 39.9953 146.561 40.1479 142.42L43.444 52.9725C43.6316 47.8826 39.9635 43.465 34.9259 42.7137L11.4751 39.2163C5.43163 38.315 0 42.9966 0 49.1069V148.924Z" fill="#EDEAE1"></path><path d="M52.5909 130.626C52.3327 137.632 59.176 142.722 65.8113 140.459L125.85 119.989C130.911 118.263 133.719 112.862 132.224 107.728L118.642 61.0835C117.551 57.3351 114.378 54.5646 110.516 53.9886L66.7736 47.4637C60.8764 46.5841 55.5247 51.0276 55.3051 56.986L52.5909 130.626Z" fill="#EDEAE1"></path><path d="M143.341 102.982C144.935 108.455 150.774 111.49 156.17 109.651L185.227 99.7438C189.277 98.3629 192 94.558 192 90.2788V74.7625C192 69.8095 188.374 65.6027 183.475 64.8719L145.359 59.1862C138.146 58.1101 132.244 64.8697 134.283 71.8725L143.341 102.982Z" fill="#EDEAE1"></path><path d="M124.434 38.0496C125.525 41.7979 128.698 44.5682 132.56 45.1442L180.525 52.299C186.568 53.2005 192 48.5188 192 42.4084V10C192 4.47715 187.523 0 182 0H126.681C120.016 0 115.216 6.39683 117.08 12.7959L124.434 38.0496Z" fill="#EDEAE1"></path><path d="M0 16.753C0 21.7061 3.62587 25.9129 8.52479 26.6436L97.717 39.9469C104.931 41.0229 110.833 34.2633 108.793 27.2605L102.953 7.20423C101.71 2.93545 97.7981 0 93.352 0H10C4.47715 0 0 4.47715 0 10V16.753Z" fill="#EDEAE1"></path><style>@media (prefers-color-scheme: light) { :root { filter: contrast(1) brightness(0.1); } }
@media (prefers-color-scheme: dark) { :root { filter: none; } }
</style></svg>